<svg width="194" height="263" viewBox="0 0 194 263" fill="none" xmlns="http://www.w3.org/2000/svg">
<path opacity="0.15" d="M192.041 3.45858C192.847 3.26525 193.343 2.45549 193.15 1.64994C192.956 0.844389 192.147 0.348087 191.341 0.541419L192.041 3.45858ZM38.8925 112.422L37.5056 111.851L38.8925 112.422ZM51.9313 170.078L52.2873 168.621L51.9313 170.078ZM125.784 122.915L127.158 123.516L125.784 122.915ZM113.662 103.458L113.024 102.101L113.662 103.458ZM50.8108 162.337L52.0358 163.202L50.8108 162.337ZM10.9393 261.596C11.5251 262.182 12.4749 262.182 13.0607 261.596L22.6066 252.05C23.1924 251.464 23.1924 250.514 22.6066 249.928C22.0208 249.343 21.0711 249.343 20.4853 249.928L12 258.414L3.51472 249.928C2.92893 249.343 1.97919 249.343 1.3934 249.928C0.807611 250.514 0.807611 251.464 1.3934 252.05L10.9393 261.596ZM191.341 0.541419C131.701 14.8551 62.2222 51.8401 37.5056 111.851L40.2795 112.994C64.4468 54.3163 132.744 17.6899 192.041 3.45858L191.341 0.541419ZM37.5056 111.851C33.8696 120.679 30.6319 133.769 31.6009 145.536C32.0864 151.432 33.6362 157.092 36.8152 161.715C40.0162 166.371 44.8074 169.882 51.5753 171.535L52.2873 168.621C46.2121 167.137 42.0573 164.044 39.2872 160.016C36.4951 155.955 35.0487 150.851 34.5908 145.29C33.6728 134.142 36.7589 121.542 40.2795 112.994L37.5056 111.851ZM51.5753 171.535C67.298 175.377 83.4366 169.687 96.9256 160C110.424 150.306 121.496 136.457 127.158 123.516L124.41 122.313C118.975 134.735 108.26 148.166 95.1756 157.563C82.0816 166.967 66.8419 172.177 52.2873 168.621L51.5753 171.535ZM127.158 123.516C128.421 120.63 129.41 117.383 129.898 114.252C130.382 111.146 130.392 108.025 129.573 105.461C128.733 102.831 126.978 100.709 124.015 99.9903C121.184 99.3035 117.543 99.9775 113.024 102.101L114.3 104.816C118.577 102.807 121.457 102.457 123.308 102.906C125.027 103.323 126.116 104.497 126.715 106.374C127.336 108.317 127.382 110.915 126.934 113.791C126.49 116.642 125.579 119.64 124.41 122.313L127.158 123.516ZM113.024 102.101C87.1838 114.24 65.4454 139.031 49.5859 161.471L52.0358 163.202C67.8217 140.867 89.1886 116.613 114.3 104.816L113.024 102.101ZM49.5859 161.471C30.3023 188.755 10.5 225.526 10.5 260.535H13.5C13.5 226.503 32.8255 190.383 52.0358 163.202L49.5859 161.471Z" fill="#FF8A00"/>
</svg>
