<svg width="47" height="38" viewBox="0 0 47 38" fill="none" xmlns="http://www.w3.org/2000/svg">
<g clip-path="url(#clip0_2_108)">
<path d="M1.16803 37.9077C1.16803 37.9589 1.20881 38 1.2596 38H46.9084C46.9592 38 47 37.9589 47 37.9077C47 37.8564 46.9592 37.8153 46.9084 37.8153H1.2596C1.20881 37.8153 1.16803 37.8564 1.16803 37.9077Z" fill="#2F2E43"/>
<path d="M24.8395 28.7924C24.7142 29.5588 24.053 30.1453 23.2583 30.1453C22.4636 30.1453 21.8025 29.5588 21.6771 28.7924H17.6318V37.6359H28.8848V28.7924L24.8395 28.7924Z" fill="#B6B3C5"/>
<path d="M18.9403 37.6029H17.8281V37.8009H18.9403V37.6029Z" fill="#B6B3C5"/>
<path d="M28.7867 37.636H27.6745V37.834H28.7867V37.636Z" fill="#B6B3C5"/>
<path d="M45.8893 29.0233H0.627344C0.281423 29.0233 0 28.7394 0 28.3905V2.33352C0 1.98459 0.281423 1.70068 0.627344 1.70068H45.8893C46.2352 1.70068 46.5166 1.98459 46.5166 2.33352V28.3905C46.5166 28.7394 46.2352 29.0233 45.8893 29.0233Z" fill="#2F2E41"/>
<path d="M45.4371 2.82275H1.1449V28.0335H45.4371V2.82275Z" fill="white"/>
<path d="M40.175 12.5046H37.7582C37.5482 12.5046 37.3773 12.3323 37.3773 12.1204C37.3773 11.9085 37.5482 11.7362 37.7582 11.7362H40.175C40.385 11.7362 40.5559 11.9085 40.5559 12.1204C40.5559 12.3323 40.385 12.5046 40.175 12.5046Z" fill="#D1D1D2"/>
<path d="M42.9544 12.5046H41.8265C41.6165 12.5046 41.4457 12.3323 41.4457 12.1204C41.4457 11.9085 41.6165 11.7362 41.8265 11.7362H42.9544C43.1644 11.7362 43.3352 11.9085 43.3352 12.1204C43.3352 12.3323 43.1644 12.5046 42.9544 12.5046Z" fill="#D1D1D2"/>
<path d="M15.9775 12.7981H8.62122C8.2457 12.7981 7.94019 12.4899 7.94019 12.1111C7.94019 11.7323 8.2457 11.4241 8.62122 11.4241H15.9775C16.3531 11.4241 16.6586 11.7323 16.6586 12.1111C16.6586 12.4899 16.3531 12.7981 15.9775 12.7981Z" fill="#FF8D08"/>
<path d="M11.9892 14.6309H8.44395C8.21505 14.6309 8.02881 14.443 8.02881 14.2121C8.02881 13.9812 8.21505 13.7933 8.44395 13.7933H11.9892C12.2181 13.7933 12.4043 13.9812 12.4043 14.2121C12.4043 14.443 12.2181 14.6309 11.9892 14.6309Z" fill="#D1D1D2"/>
<path d="M31.5321 16.2849H8.35533C8.12643 16.2849 7.94019 16.097 7.94019 15.8661C7.94019 15.6351 8.12643 15.4473 8.35533 15.4473H31.5321C31.761 15.4473 31.9473 15.6351 31.9473 15.8661C31.9473 16.097 31.761 16.2849 31.5321 16.2849Z" fill="#D1D1D2"/>
<path d="M29.5379 17.4025H8.35533C8.12643 17.4025 7.94019 17.2146 7.94019 16.9837C7.94019 16.7528 8.12643 16.5649 8.35533 16.5649H29.5379C29.7668 16.5649 29.9531 16.7528 29.9531 16.9837C29.9531 17.2146 29.7668 17.4025 29.5379 17.4025Z" fill="#D1D1D2"/>
<path d="M42.8851 33.5343L41.8219 34.6604L40.6889 33.6038L41.752 32.4777L42.8851 33.5343Z" fill="#ED9DA0"/>
<path d="M43.7343 34.6877L41.4744 37.0814C41.2813 37.286 41.04 37.4476 40.7767 37.5488L40.1467 37.7911C40.0164 37.8412 39.8664 37.8122 39.7646 37.7172C39.6451 37.6058 39.6149 37.4273 39.691 37.2832L40.2971 36.1364L40.9438 33.8108L40.9508 33.8152C41.1267 33.9245 41.3936 34.0884 41.4126 34.0954C41.7475 34.1073 41.9872 34.0224 42.1252 33.8429C42.3659 33.5299 42.2132 33.0301 42.2117 33.0251L42.2105 33.0213L42.2135 33.0187C42.2837 32.9582 42.3576 32.934 42.4332 32.9468C42.5937 32.9738 42.7085 33.1557 42.7253 33.1837C42.8759 33.1773 43.3383 33.5426 43.3755 33.5722C43.6025 33.5716 43.7689 33.6259 43.8701 33.7336C43.9586 33.8278 43.9971 33.9615 43.9846 34.131C43.9696 34.3349 43.8807 34.5326 43.7343 34.6877Z" fill="#090814"/>
<path d="M41.6577 34.8308H40.1039V36.375H41.6577V34.8308Z" fill="#ED9DA0"/>
<path d="M41.3925 37.7797H38.0898C37.8075 37.7797 37.5238 37.7155 37.2694 37.5939L36.6605 37.303C36.5347 37.2429 36.4533 37.1143 36.4533 36.9755C36.4533 36.8127 36.5636 36.6687 36.7214 36.6253L37.9776 36.2798L40.1265 35.1572L40.1281 35.1653C40.1683 35.3676 40.2306 35.6732 40.2385 35.6917C40.4589 35.9426 40.6852 36.0583 40.9113 36.0355C41.3057 35.9957 41.5679 35.5431 41.5705 35.5385L41.5725 35.535L41.5766 35.5355C41.6689 35.545 41.7372 35.582 41.7796 35.6455C41.8696 35.7803 41.8147 35.988 41.8057 36.0193C41.9134 36.124 41.9618 36.7092 41.9655 36.7564C42.1213 36.9205 42.1953 37.0783 42.1855 37.2253C42.1769 37.3539 42.1052 37.4733 41.9723 37.5802C41.8124 37.7089 41.6065 37.7797 41.3925 37.7797Z" fill="#090814"/>
<path d="M41.8421 15.3827L36.3365 15.3854L34.5013 26.9344L40.0069 33.5354L41.8421 31.8852L37.4911 26.9344L41.8421 15.3827Z" fill="#090814"/>
<path d="M38.588 17.0851L41.8422 15.3827V35.1856L40.0069 35.2365L38.588 17.0851Z" fill="#090814"/>
<path d="M35.3284 20.0139L35.3671 18.2112L34.3237 18.1884L34.285 19.9911C34.0903 20.1734 33.9618 20.4566 33.9549 20.7778C33.9428 21.3397 34.3067 21.8034 34.7677 21.8135C35.2287 21.8236 35.6122 21.3762 35.6243 20.8143C35.6312 20.4931 35.515 20.2045 35.3284 20.0139Z" fill="#ED9DA0"/>
<path d="M40.2762 2.40852C40.2762 2.40852 41.7739 2.40526 41.2144 0.949451C40.6549 -0.506354 39.613 0.145489 39.613 0.145489C39.613 0.145489 39.174 0.379407 39.2645 0.901303" fill="#090814"/>
<path d="M40.4261 3.10683C40.4261 1.99065 39.5291 1.08582 38.4226 1.08582C37.3161 1.08582 36.4191 1.99065 36.4191 3.10683C36.4191 4.01205 37.0091 4.77817 37.8224 5.03546L38.2097 7.61751L40.1841 5.95774C40.1841 5.95774 39.7576 5.40968 39.5288 4.79171C40.0695 4.42977 40.4261 3.81042 40.4261 3.10683Z" fill="#ED9DA0"/>
<path d="M39.3852 4.81415C39.3852 4.81415 39.6512 3.78518 39.2162 3.31206C38.7821 2.84001 38.7261 3.5745 38.7261 3.5745L38.4129 3.50582C38.4129 3.50582 38.4673 2.79154 37.8546 2.66791L38.2495 1.81627C38.2495 1.81627 36.7376 2.11239 36.6959 1.96468C36.3681 0.802433 39.496 -0.190397 40.3601 1.58276C41.704 4.34059 39.3852 4.81415 39.3852 4.81415Z" fill="#090814"/>
<path d="M37.6155 6.6145C36.161 6.90121 35.0692 8.12288 34.9369 9.61191L34.0315 19.7951H35.6203L37.6155 6.6145Z" fill="#FF8D08"/>
<path d="M36.1133 14.7279L35.8658 17.6031L42.5824 15.6104L41.764 13.5322L43.2879 10.0022L40.1771 5.50427L37.6937 5.67508L36.7341 6.92766" fill="#FF8D08"/>
<path d="M41.5906 17.4585L42.5274 15.9228L41.6386 15.3711L40.7018 16.9067C40.4425 16.9648 40.1896 17.1436 40.0227 17.4172C39.7307 17.8959 39.8124 18.4816 40.2051 18.7254C40.5978 18.9691 41.1529 18.7787 41.4449 18.3C41.6118 18.0265 41.6561 17.7182 41.5906 17.4585Z" fill="#ED9DA0"/>
<path d="M39.6691 5.56124L40.2107 5.53857L41.1366 6.24447C42.2338 6.4332 42.552 6.48612 42.8881 7.21719C43.0294 7.52439 43.123 7.85165 43.1754 8.18615L43.9587 13.1906L41.9898 17.9732L40.6851 16.4929L42.0798 12.7537L41.8481 11.8593" fill="#FF8D08"/>
</g>
<defs>
<clipPath id="clip0_2_108">
<rect width="47" height="38" fill="white"/>
</clipPath>
</defs>
</svg>
