<svg width="47" height="38" viewBox="0 0 47 38" fill="none" xmlns="http://www.w3.org/2000/svg">
<g clip-path="url(#clip0_68_54)">
<path d="M9.31198 30.7528C9.2866 30.6674 9.09427 30.705 9.0758 30.6286C9.0574 30.5525 9.24196 30.4887 9.3835 30.2741C9.40903 30.2355 9.56989 29.9917 9.5082 29.8891C9.39126 29.6948 8.57764 30.1788 8.38234 29.9072C8.33948 29.8476 8.32185 29.7452 8.19417 29.5548C8.14337 29.479 8.11078 29.4424 8.07184 29.4435C8.0166 29.445 7.99683 29.5211 7.90999 29.6588C7.77977 29.8653 7.73277 29.8394 7.64699 30.0086C7.5833 30.1342 7.57576 30.2145 7.52983 30.2192C7.46484 30.2259 7.43799 30.0695 7.35858 30.0634C7.27755 30.0573 7.19646 30.2118 7.15627 30.3325C7.08083 30.5591 7.12754 30.7323 7.1379 30.9049C7.14915 31.0925 7.12273 31.367 6.93745 31.7194L5.18988 34.782C5.56519 34.1577 6.63054 32.4552 7.05977 31.8307C7.18368 31.6504 7.31684 31.4694 7.52179 31.4353C7.71911 31.4026 7.9592 31.5099 8.29432 31.5037C8.33345 31.503 8.44237 31.4994 8.46886 31.4359C8.49077 31.3834 8.43638 31.3378 8.45617 31.2884C8.4827 31.2222 8.6021 31.2506 8.7648 31.2067C8.87953 31.1757 8.95748 31.1244 9.02451 31.0804C9.04472 31.0671 9.34576 30.8665 9.31198 30.7528Z" fill="#F2F2F2"/>
<path d="M4.73476 31.4679C4.68933 31.4569 4.65061 31.5716 4.6112 31.5595C4.57192 31.5475 4.59669 31.4295 4.54181 31.2911C4.53191 31.2662 4.46954 31.109 4.40599 31.1127C4.28552 31.1198 4.26676 31.6987 4.0892 31.7258C4.05024 31.7317 3.99948 31.7117 3.87765 31.7257C3.82919 31.7312 3.80346 31.7383 3.79271 31.7596C3.77746 31.7899 3.80567 31.8225 3.84207 31.9091C3.89665 32.039 3.87152 32.0569 3.92228 32.152C3.95995 32.2226 3.99359 32.2499 3.98245 32.276C3.96669 32.313 3.88915 32.2824 3.86353 32.3235C3.83739 32.3655 3.88295 32.4539 3.92523 32.5104C4.00457 32.6165 4.09532 32.6412 4.17532 32.6854C4.26226 32.7335 4.37715 32.827 4.48094 33.0287L5.34327 34.8558C5.17297 34.473 4.72069 33.4067 4.56588 32.9948C4.52119 32.8758 4.47884 32.7517 4.52278 32.6313C4.56508 32.5153 4.68227 32.4166 4.77617 32.2339C4.78714 32.2126 4.81698 32.1527 4.79629 32.1201C4.77918 32.0931 4.74313 32.1093 4.72682 32.0844C4.70494 32.051 4.75206 31.9947 4.77939 31.8942C4.79866 31.8233 4.79829 31.7665 4.79798 31.7176C4.79789 31.7028 4.79524 31.4824 4.73476 31.4679Z" fill="#F2F2F2"/>
<path d="M5.59506 31.9138L5.62217 31.6385L5.63879 31.6212C5.71571 31.5412 5.76382 31.4565 5.78187 31.3694C5.78474 31.3555 5.78697 31.3415 5.78924 31.3272C5.79825 31.2706 5.80942 31.2002 5.85889 31.1272C5.88657 31.0864 5.95981 30.9944 6.03534 31.0266C6.05573 31.035 6.06949 31.0495 6.07905 31.0649C6.08145 31.0622 6.08391 31.0596 6.08654 31.0567C6.11916 31.0218 6.14199 31.009 6.16397 30.9967C6.18087 30.9873 6.19831 30.9775 6.22783 30.9516C6.24079 30.9402 6.25116 30.9299 6.2599 30.9213C6.2864 30.8953 6.3203 30.8648 6.36673 30.8769C6.41596 30.8917 6.43284 30.9433 6.44403 30.9775C6.46403 31.0385 6.47019 31.0804 6.47426 31.1083C6.47573 31.1184 6.47743 31.1299 6.47872 31.1336C6.48949 31.1634 6.62474 31.1712 6.67563 31.1744C6.79002 31.1812 6.889 31.1871 6.9128 31.2733C6.92988 31.3349 6.89428 31.4021 6.80395 31.4784C6.77581 31.5021 6.74768 31.5185 6.72317 31.5307C6.73824 31.5464 6.75025 31.5677 6.75099 31.5968C6.75264 31.6655 6.68855 31.7183 6.56049 31.7538C6.52867 31.7627 6.48586 31.7746 6.42985 31.7716C6.40347 31.7702 6.38037 31.7657 6.36066 31.7616C6.35773 31.7739 6.35234 31.7867 6.34263 31.7989C6.31413 31.8348 6.2681 31.8439 6.20562 31.8237C6.13664 31.8026 6.08214 31.7738 6.03405 31.7485C5.99205 31.7265 5.95583 31.7077 5.92544 31.7026C5.86891 31.6939 5.8162 31.7323 5.75313 31.7833L5.59506 31.9138Z" fill="#F2F2F2"/>
<path d="M6.04617 30.3458L5.79723 30.3868L5.7778 30.3735C5.68798 30.3119 5.60128 30.2822 5.52003 30.2851C5.50712 30.2856 5.49422 30.2868 5.48109 30.288C5.42904 30.2928 5.36433 30.2987 5.28752 30.2646C5.24469 30.2455 5.14519 30.1909 5.1543 30.1024C5.15652 30.0786 5.16581 30.0603 5.17694 30.0462C5.17398 30.0443 5.17101 30.0424 5.1678 30.0403C5.12885 30.0144 5.11183 29.9934 5.09543 29.9731C5.08282 29.9575 5.06983 29.9414 5.0395 29.9166C5.0262 29.9057 5.01456 29.8973 5.00477 29.8902C4.97515 29.8686 4.93975 29.8403 4.93859 29.7878C4.93912 29.7317 4.98026 29.7006 5.00749 29.68C5.05605 29.6433 5.09137 29.6261 5.1148 29.6147C5.12336 29.6105 5.13299 29.6058 5.13594 29.6035C5.15947 29.5845 5.13196 29.4386 5.12189 29.3837C5.09888 29.2602 5.07897 29.1534 5.14869 29.1062C5.19856 29.0724 5.26671 29.0932 5.35668 29.17C5.38468 29.1939 5.40622 29.2197 5.42319 29.2427C5.43315 29.2227 5.44886 29.2045 5.47421 29.1963C5.53424 29.1771 5.59688 29.232 5.66063 29.3592C5.67656 29.3908 5.69782 29.4333 5.7094 29.4937C5.71483 29.5221 5.71678 29.5478 5.71813 29.5698C5.72973 29.5698 5.74238 29.5723 5.75556 29.5796C5.79435 29.6008 5.81405 29.6474 5.81211 29.719C5.81101 29.7978 5.79955 29.8631 5.78952 29.9207C5.78082 29.9709 5.77345 30.0142 5.77664 30.0479C5.78333 30.1102 5.83046 30.1566 5.89139 30.2107L6.04617 30.3458Z" fill="#F2F2F2"/>
<path d="M6.07972 29.5235L6.10682 29.2482L6.12345 29.2309C6.20036 29.151 6.24848 29.0663 6.26653 28.9791C6.2694 28.9652 6.27163 28.9512 6.2739 28.9369C6.2829 28.8803 6.29408 28.81 6.34355 28.7369C6.37123 28.6962 6.44447 28.6042 6.52 28.6363C6.54039 28.6447 6.55415 28.6593 6.56371 28.6747C6.56611 28.672 6.56856 28.6693 6.57119 28.6664C6.60382 28.6316 6.62664 28.6188 6.64863 28.6065C6.66552 28.597 6.68297 28.5873 6.71249 28.5613C6.72544 28.5499 6.73581 28.5397 6.74455 28.531C6.77106 28.505 6.80496 28.4745 6.85139 28.4866C6.90062 28.5014 6.91749 28.5531 6.92869 28.5872C6.94868 28.6482 6.95484 28.6902 6.95892 28.718C6.96039 28.7282 6.96209 28.7396 6.96338 28.7433C6.97415 28.7732 7.1094 28.7809 7.16028 28.7841C7.27467 28.791 7.37366 28.7969 7.39746 28.883C7.41454 28.9447 7.37894 29.0119 7.28861 29.0881C7.26047 29.1119 7.23233 29.1282 7.20783 29.1405C7.2229 29.1561 7.23491 29.1775 7.23565 29.2065C7.2373 29.2753 7.1732 29.328 7.04515 29.3636C7.01332 29.3725 6.97052 29.3843 6.91451 29.3813C6.88813 29.3799 6.86502 29.3755 6.84532 29.3713C6.84238 29.3836 6.837 29.3965 6.82729 29.4087C6.79879 29.4446 6.75276 29.4537 6.69028 29.4334C6.6213 29.4123 6.5668 29.3836 6.51871 29.3583C6.4767 29.3363 6.44049 29.3174 6.41009 29.3123C6.35357 29.3036 6.30086 29.342 6.23778 29.3931L6.07972 29.5235Z" fill="#F2F2F2"/>
<path d="M5.2725 34.7977L5.22849 34.7499L5.16731 34.7428C5.16761 34.7364 5.1672 34.7216 5.16676 34.6985C5.1644 34.5719 5.1571 34.1865 5.20589 33.5943C5.23995 33.181 5.29688 32.7614 5.37509 32.347C5.45342 31.932 5.53473 31.6232 5.60003 31.375C5.64931 31.1878 5.69905 31.0103 5.74761 30.8373C5.87719 30.3752 5.99955 29.9388 6.07532 29.4409C6.09228 29.3298 6.1275 29.0984 6.0554 28.8253C6.01357 28.667 5.94195 28.5179 5.84245 28.3824L5.93875 28.2969C6.04854 28.4466 6.12775 28.6117 6.1742 28.7875C6.25414 29.0903 6.21577 29.3424 6.19734 29.4635C6.12022 29.9701 5.99665 30.4108 5.86579 30.8773C5.81748 31.0497 5.7679 31.2264 5.71883 31.4129C5.65412 31.6588 5.57355 31.9649 5.49623 32.3746C5.4189 32.784 5.36271 33.1984 5.32902 33.6066C5.28087 34.1913 5.28811 34.5709 5.29047 34.6957C5.2917 34.7623 5.29196 34.7762 5.2725 34.7977Z" fill="#F2F2F2"/>
<path d="M5.57826 28.5391C5.57331 28.5379 5.56833 28.5366 5.56334 28.5349C5.46177 28.5036 5.3803 28.4126 5.32112 28.2644C5.29342 28.1947 5.28689 28.1214 5.27385 27.9751C5.2718 27.9525 5.26276 27.8384 5.27387 27.6872C5.2811 27.5884 5.29076 27.5487 5.31521 27.5175C5.34236 27.4828 5.37894 27.4629 5.4176 27.4529C5.41864 27.4398 5.42253 27.427 5.43025 27.4149C5.46205 27.3646 5.51528 27.3853 5.54416 27.396C5.55872 27.4018 5.57685 27.4091 5.59725 27.4129C5.6293 27.419 5.64844 27.4128 5.67741 27.4035C5.70513 27.3947 5.7396 27.3837 5.78725 27.3846C5.88126 27.386 5.95085 27.4325 5.9738 27.4478C6.09466 27.5277 6.13639 27.6551 6.18468 27.8027C6.19428 27.8323 6.22612 27.9392 6.23354 28.0769C6.23889 28.1762 6.22706 28.2168 6.21349 28.2459C6.18578 28.3057 6.14335 28.3334 6.03803 28.3917C5.928 28.4527 5.8728 28.4833 5.82753 28.499C5.72221 28.5354 5.65607 28.5582 5.57826 28.5391Z" fill="#F2F2F2"/>
<path d="M19.5518 20.1752C19.8802 19.8701 19.793 19.1625 19.357 18.5948C19.1662 18.3463 18.9401 18.1658 18.7187 18.067L18.4642 17.7439L15.178 13.2148C15.178 13.2148 13.3582 8.70936 12.8209 8.22261C12.2837 7.73586 11.6517 7.98928 11.6517 7.98928L11.1585 8.66039L14.2316 14.9511L17.3767 18.4326L17.8012 18.9195C17.8528 19.1761 17.9768 19.4515 18.1677 19.6999C18.6037 20.2676 19.2234 20.4804 19.5518 20.1752Z" fill="#FFB6B6"/>
<path d="M13.3486 9.0603L14.1721 10.3888L15.3544 12.3134L13.2301 13.1217L11.3545 9.5817L13.3486 9.0603Z" fill="#E6E6E6"/>
<path d="M47 34.6753H0V34.8329H47V34.6753Z" fill="#3F3D56"/>
<path d="M33.2735 23.7197H29.5263V22.3201C29.5263 20.0687 31.1881 18.2409 33.2349 18.2409H33.2735V23.7197Z" fill="#2F2E41"/>
<path d="M30.3614 22.9869L30.9825 20.751L32.5758 20.6632L33.2735 23.7198L30.3614 22.9869Z" fill="#A0616A"/>
<path opacity="0.1" d="M30.3614 22.9869L30.9825 20.751L32.5758 20.6632L33.2735 23.7198L30.3614 22.9869Z" fill="black"/>
<path d="M31.8112 22.061C32.8459 22.061 33.6848 21.1383 33.6848 20.0002C33.6848 18.862 32.8459 17.9393 31.8112 17.9393C30.7764 17.9393 29.9376 18.862 29.9376 20.0002C29.9376 21.1383 30.7764 22.061 31.8112 22.061Z" fill="#A0616A"/>
<path d="M27.8401 31.5192L27.3442 32.0647C27.3442 32.0647 24.6944 30.1097 23.6782 30.8388C22.6619 31.5679 22.6176 32.9797 23.8126 33.7586C25.0076 34.5375 28.0614 36.4361 28.0614 36.4361C28.0614 36.4361 32.1332 37.215 34.8772 34.8296C37.6212 32.4442 38.1302 32.5659 37.6433 31.3001C37.1565 30.0344 36.0943 30.3265 36.0943 30.3265L34.0584 31.6409L33.2175 31.4462L27.8401 31.5192Z" fill="#2F2E41"/>
<path d="M27.9508 32.1278L30.0752 33.1501L29.2785 35.2435L26.1362 34.4159" fill="#2F2E41"/>
<path d="M33.3808 32.1278L30.5178 33.5883L31.6242 36.1197L34.8108 34.6106" fill="#2F2E41"/>
<path d="M30.5178 22.582L27.7516 23.9248L28.6368 29.2798L27.8401 31.5192L32.0889 32.2494L34.2677 31.5058L34.0805 30.4482L34.2677 26.5011L35.01 24.1682L33.0183 22.6591L30.5178 22.582Z" fill="#E6E6E6"/>
<path d="M29.8096 33.3448L31.1816 33.783L30.5178 35.5721L28.7032 34.8053L29.8096 33.3448Z" fill="#A0616A"/>
<path d="M31.7164 33.3448L30.0309 34.2698V35.6825L31.934 35.4382L31.7164 33.3448Z" fill="#A0616A"/>
<path d="M29.2785 36.0223C29.2785 36.0223 32.1996 38.1643 33.306 37.2881C34.4125 36.4118 35.0321 35.2921 34.8108 35.146C34.5895 35 33.9256 34.7566 33.9256 34.7566L30.2079 35.5842L29.2785 36.0223Z" fill="#2F2E41"/>
<path d="M25.5608 34.4158C25.5608 34.4158 24.056 36.9473 25.4723 37.3367C26.8886 37.7262 30.4576 36.1197 30.4576 36.1197L30.2079 34.0264L29.5441 34.7566L25.5608 34.4158Z" fill="#2F2E41"/>
<path d="M34.9393 16.8937C34.5253 16.4728 34.3872 15.8967 34.6308 15.6069C34.8743 15.3171 35.4073 15.4235 35.8214 15.8447C35.9889 16.0104 36.1179 16.2179 36.1976 16.4497L37.9312 18.2575L37.1425 19.1343L35.5172 17.259C35.3008 17.1897 35.1026 17.0645 34.9393 16.8937Z" fill="#A0616A"/>
<path d="M34.4677 22.4994L37.6046 20.8156L35.9819 17.7458L36.4899 16.6106C36.4899 16.6106 40.439 19.032 40.046 20.7939C39.653 22.5559 35.736 25.7928 34.485 25.2753C34.1052 25.1182 33.8852 24.8378 33.763 24.5235C33.4645 23.756 33.7857 22.8655 34.4677 22.4994Z" fill="#E6E6E6"/>
<path d="M28.2243 21.6674C28.3196 21.3487 28.5077 21.0696 28.5919 20.7471C28.7036 20.3189 28.9416 21.2689 28.9648 20.8241C29.0089 19.9787 30.1819 17.8041 30.8515 17.3864C31.5212 16.9687 31.9058 17.0946 32.588 17.4869C32.588 17.4869 32.9192 17.5101 33.3315 17.734C33.7438 17.9579 34.1149 18.3165 34.2752 18.7905C34.4023 19.1662 34.3883 19.5788 34.4308 19.9769C34.5491 21.0861 35.1143 22.141 34.993 23.2498C34.9552 23.5958 34.8356 23.9535 34.5785 24.157C34.3213 24.3605 33.9059 24.3383 33.7366 24.0438C33.6788 23.9433 33.6544 23.8241 33.6049 23.7184C33.5554 23.6127 33.466 23.5141 33.3579 23.5174C33.1955 23.5223 33.1128 23.7621 33.1769 23.9263C33.2409 24.0906 33.3914 24.1897 33.5327 24.278C33.1962 24.4445 32.7787 24.3926 32.4844 24.1477C32.1901 23.9028 32.0311 23.475 32.0853 23.0735C32.1616 22.5076 32.911 22.6247 32.9993 22.061C33.0636 21.6506 33.2893 20.964 33.2278 20.5531C33.1663 20.1422 32.8711 20.6397 33.1821 20.4023C32.8399 20.5837 32.108 19.3424 31.7498 19.2034C31.3916 19.0644 31.0878 18.7633 30.9249 18.3859C30.545 18.9917 30.2108 18.8272 30.0747 19.5478C29.9386 20.2684 30.1645 22.4912 30.7248 22.8935C30.5006 23.0618 30.2218 22.7168 30.1165 22.992C30.0569 23.148 30.0183 23.3186 29.9194 23.4481C29.7304 23.6954 29.3816 23.7105 29.1035 23.6065C28.7587 23.4775 28.4639 23.1943 28.3014 22.8358C28.1388 22.4773 28.1105 22.0479 28.2243 21.6674Z" fill="#2F2E41"/>
<path d="M23.4317 21.1844C23.3304 20.5744 22.9622 20.1374 22.6092 20.2084C22.2563 20.2793 22.0524 20.8313 22.1537 21.4415C22.1912 21.6859 22.2813 21.9168 22.4165 22.115L22.8753 24.6938L23.9708 24.4312L23.4023 21.9169C23.4651 21.6788 23.4752 21.4277 23.4317 21.1844Z" fill="#A0616A"/>
<path d="M27.9872 23.7503L25.0138 25.7613L23.527 22.6093L22.3834 22.4728C22.3834 22.4728 22.1259 27.4378 23.689 28.017C25.252 28.5962 29.8355 26.6929 30.1087 25.2538C30.1916 24.817 30.0943 24.4624 29.9185 24.1804C29.4894 23.492 28.6337 23.3131 27.9872 23.7503Z" fill="#E6E6E6"/>
<path d="M44.2094 27.5048L33.5584 31.2076V16.9425L44.2094 13.2396V27.5048Z" fill="white"/>
<path d="M33.4868 31.3153V16.8848L44.2811 13.1321V27.5625L33.4868 31.3153ZM33.63 17.0002V31.1001L44.1378 27.4471V13.3472L33.63 17.0002Z" fill="#3F3D56"/>
<path d="M18.1265 30.6693L26.6684 33.6389V22.1986L18.1265 19.229V30.6693Z" fill="white"/>
<path d="M26.74 33.7465L26.6468 33.714L18.0549 30.727V19.1215L18.1481 19.1539L26.74 22.1409V33.7465ZM18.1982 30.6116L26.5967 33.5313V22.2564L18.1982 19.3366V30.6116Z" fill="#3F3D56"/>
<path d="M36.1471 17.8242C36.0254 18.5221 36.2475 19.281 36.7165 19.7698C37.1854 20.2586 37.8863 20.4616 38.5134 20.2904C39.1087 20.1278 39.6655 19.4354 39.4136 18.8202C39.234 18.3816 38.6864 18.2156 38.2933 18.4265C37.9003 18.6375 37.6817 19.1444 37.7044 19.6248C37.7271 20.1052 37.9595 20.5518 38.2695 20.891C39.0782 21.7758 40.3736 22.0053 41.0864 22.9848C41.7089 23.8402 41.6897 25.1828 41.0432 26.0163C40.3966 26.8498 39.1943 27.0819 38.3283 26.5404C37.9714 26.3172 37.6643 25.9591 37.5757 25.5182C37.487 25.0772 37.6657 24.5601 38.0407 24.3764C38.7481 24.0301 39.4604 24.9604 40.2346 24.974C40.678 24.9818 41.1086 24.6444 41.2469 24.181C41.3852 23.7175 41.2201 23.165 40.8587 22.8823" fill="#F9A826"/>
<path d="M21.158 27.8053C21.2949 28.2473 21.0111 28.7864 20.5944 28.8759C20.1777 28.9654 19.7304 28.5834 19.7061 28.1171C19.6817 27.6509 20.0863 27.215 20.5096 27.2514C21.1916 27.3102 21.5943 28.3369 22.2769 28.2889C22.744 28.2561 23.0391 27.7306 23.2115 27.2519C23.41 26.7008 23.5552 26.1265 23.6438 25.5418C23.7178 25.054 23.7517 24.549 23.6451 24.0686C23.5384 23.5883 23.2742 23.1322 22.8737 22.9077C22.2652 22.5668 21.4323 22.8994 21.1417 23.5791C20.8512 24.2588 21.1311 25.1569 21.7276 25.5224C22.4736 25.9796 23.5011 25.6504 24.1789 26.2218C24.7221 26.6798 24.8155 27.5243 24.8651 28.2752C24.8967 28.7541 24.9279 29.2404 24.8388 29.7104C24.7496 30.1805 24.5226 30.6405 24.1461 30.8835C23.861 31.0675 23.4803 31.104 23.2058 30.9012C22.9314 30.6984 22.8283 30.2291 23.0418 29.9513C23.2164 29.7239 23.5345 29.6877 23.7902 29.7853C24.0458 29.883 24.2539 30.0876 24.4546 30.2873" fill="#F9A826"/>
<path d="M14.1847 4.53913L13.5883 7.04035L11.3144 6.5483C11.3144 6.5483 12.209 4.74414 11.9854 3.92407L14.1847 4.53913Z" fill="#FFB6B6"/>
<path d="M11.7843 37.0971L13.1537 37.097L13.8051 31.2872L11.784 31.2874L11.7843 37.0971Z" fill="#FFB6B6"/>
<path d="M16.4759 37.0629C16.5185 37.1419 16.541 37.3968 16.541 37.4887C16.541 37.771 16.3329 37.9999 16.0762 37.9999H11.8355C11.6604 37.9999 11.5185 37.8437 11.5185 37.6511V37.4569C11.5185 37.4569 11.3087 36.8733 11.7406 36.1538C11.7406 36.1538 12.2774 36.7172 13.0795 35.8349L13.3161 35.3635L15.0283 36.7409L15.9773 36.8694C16.185 36.8975 16.3691 36.865 16.4759 37.0629Z" fill="#2F2E41"/>
<path d="M15.5865 20.2836L13.6996 34.4072H11.3322L11.647 26.3451L11.8127 22.106L11.3322 20.0882C11.3322 20.0882 11.1132 19.6397 10.9286 19.096C10.7206 18.4825 10.5563 17.7469 10.8002 17.3982C10.89 17.2696 11.1233 17.1744 11.4404 17.1035C11.6341 17.06 11.8596 17.0261 12.1031 16.9998C13.5031 16.8474 15.4945 16.9426 15.4945 16.9426L15.5451 18.7801L15.5732 19.8063L15.5865 20.2836Z" fill="#2F2E41"/>
<path d="M9.37215 36.4064L10.727 36.6254L12.1397 30.9816L10.1402 30.6584L9.37215 36.4064Z" fill="#FFB6B6"/>
<path d="M14.0183 37.1233C14.0501 37.2082 14.0386 37.464 14.0265 37.5549C13.9891 37.8343 13.753 38.0274 13.499 37.9863L9.30344 37.3078C9.1302 37.2798 9.0104 37.1026 9.03587 36.9121L9.06155 36.7199C9.06155 36.7199 8.93118 36.1089 9.45363 35.4663C9.45363 35.4663 9.91023 36.1095 10.8205 35.3649L11.1169 34.9364L12.6287 36.5731L13.5507 36.8521C13.7524 36.9131 13.9388 36.9104 14.0183 37.1233Z" fill="#2F2E41"/>
<path d="M15.6162 17.9282L15.3574 20.3798L13.946 25.5461L11.6226 34.0514L9.28065 33.6729L11.3825 21.5795L11.1744 19.5058C11.1744 19.5058 11.1066 19.2997 11.0289 18.9979C10.8747 18.4009 10.6813 17.4287 10.8941 16.9327C10.9228 16.8653 10.9589 16.8068 11.0035 16.7595C11.0872 16.6702 11.2573 16.616 11.4852 16.5872C12.4378 16.4688 14.3996 16.8075 15.2725 16.9738L15.6162 17.9282Z" fill="#2F2E41"/>
<path d="M13.812 6.30219L16.3841 9.8695L15.9224 13.5887L15.5267 17.3732L10.867 16.5941C10.867 16.5941 11.8735 13.9289 11.9854 13.8058C12.0972 13.6828 12.3781 13.9866 12.1817 13.5887C11.9854 13.1908 11.7617 13.1908 11.9481 12.9858C12.1345 12.7808 10.4943 10.1155 10.4943 8.68039C10.4943 7.24527 11.2771 6.09717 11.2771 6.09717L13.812 6.30219Z" fill="#E6E6E6"/>
<path d="M13.2118 5.01143C14.1688 5.01143 14.9446 4.15812 14.9446 3.10551C14.9446 2.0529 14.1688 1.19958 13.2118 1.19958C12.2549 1.19958 11.4791 2.0529 11.4791 3.10551C11.4791 4.15812 12.2549 5.01143 13.2118 5.01143Z" fill="#FFB6B6"/>
<path d="M13.1309 6.74956C13.1309 6.74956 13.3901 4.49292 13.436 3.83668C13.4819 3.18043 14.3241 2.15585 14.3241 2.15585L14.9207 2.68589C14.9207 2.68589 15.4255 2.68589 15.0813 1.87821C14.7371 1.07052 14.0946 0.944321 14.0946 0.944321C14.0946 0.944321 14.0258 -0.115766 12.8326 0.0104359C11.6393 0.136637 11.1116 1.19672 11.1116 1.19672C11.1116 1.19672 11.0427 -0.141005 10.2855 0.843361C9.52824 1.82773 9.09226 2.23157 9.89539 2.55969C10.6985 2.88781 11.2951 2.63541 11.2951 2.63541C11.2951 2.63541 10.5149 2.81209 10.6526 3.41786C10.7903 4.02362 8.83985 6.7748 9.73476 7.07768C10.6297 7.38056 12.626 8.11253 12.8555 7.63296C13.085 7.1534 13.1309 6.74956 13.1309 6.74956Z" fill="#2F2E41"/>
<path d="M20.2736 20.3643C20.6043 20.0621 20.5225 19.3538 20.0908 18.7821C19.9019 18.5318 19.6772 18.3493 19.4565 18.2484L19.2045 17.923L15.9529 13.3638C15.9529 13.3638 14.1675 8.84169 13.634 8.35001C13.1005 7.85833 12.4666 8.10591 12.4666 8.10591L11.9683 8.77245L14.9933 15.0913L18.1118 18.6017L18.5326 19.0925C18.5822 19.3496 18.7041 19.626 18.8931 19.8762C19.3248 20.4479 19.9428 20.6664 20.2736 20.3643Z" fill="#FFB6B6"/>
<path d="M11.7796 7.75537C11.7796 7.75537 12.5756 12.299 13.4813 12.9688L15.2863 11.4207C15.2863 11.4207 15.4443 11.4132 15.1503 11.0479C14.8563 10.6827 14.9316 9.89831 14.9316 9.89831C14.9316 9.89831 15.0639 10.0866 14.776 9.82523C14.4882 9.56388 14.7562 7.76658 14.7562 7.76658L11.7796 7.75537Z" fill="#E6E6E6"/>
</g>
<defs>
<clipPath id="clip0_68_54">
<rect width="47" height="38" fill="white"/>
</clipPath>
</defs>
</svg>
