<svg width="253" height="89" viewBox="0 0 253 89" fill="none" xmlns="http://www.w3.org/2000/svg">
<path d="M12.3414 73.9603V43.506L46.9922 5.64403H75.8284L12.3414 73.9603ZM0 87.9528V5.64403H21.9534V87.9528H0ZM49.6029 87.9528L17.4441 46.0929L33.9388 33.3938L76.8964 87.9528H49.6029Z" fill="#FF8D08"/>
<path d="M84.5828 87.9528V29.1608H105.943V87.9528H84.5828ZM95.2629 23.5168C92.0984 23.5168 89.3295 22.3409 86.9562 19.9893C84.5828 17.6376 83.3962 14.894 83.3962 11.7584C83.3962 8.54443 84.5828 5.80081 86.9562 3.52751C89.3295 1.17584 92.0984 0 95.2629 0C98.5065 0 101.275 1.17584 103.57 3.52751C105.943 5.80081 107.13 8.54443 107.13 11.7584C107.13 14.894 105.943 17.6376 103.57 19.9893C101.275 22.3409 98.5065 23.5168 95.2629 23.5168Z" fill="#FF8D08"/>
<path d="M251.855 39.2303H113.402V23.5218H251.855V39.2303Z" fill="#FF8D08"/>
<path d="M251.855 15.7085H113.401V0H251.855V15.7085Z" fill="#FF8D08"/>
<path d="M141.664 87.9528L140.783 79.924V44.3181H156.636V87.9528H141.664ZM113.216 66.6591V44.3181H129.069V66.6591H113.216ZM129.069 66.6591C129.069 68.2881 129.245 69.6553 129.598 70.7607C130.009 71.8661 130.566 72.7097 131.271 73.2915C132.034 73.8733 132.974 74.1933 134.089 74.2515C136.321 74.3097 137.994 73.786 139.109 72.6806C140.225 71.5752 140.783 69.8589 140.783 67.5317H145.098C145.098 72.1279 144.394 76.026 142.985 79.2258C141.576 82.4257 139.667 84.8693 137.26 86.5565C134.853 88.1855 132.122 89 129.069 89C125.487 89 122.522 88.3018 120.174 86.9055C117.825 85.451 116.064 83.2693 114.889 80.3603C113.774 77.4514 113.216 73.757 113.216 69.2771V66.6591H129.069Z" fill="#FF8D08"/>
<path d="M186.416 89C181.719 89 177.55 88.04 173.909 86.1201C170.328 84.142 167.509 81.4367 165.454 78.0041C163.399 74.5715 162.372 70.6153 162.372 66.1354C162.372 61.6556 163.37 57.6994 165.366 54.2668C167.421 50.8342 170.24 48.158 173.821 46.238C177.462 44.2599 181.601 43.2709 186.24 43.2709C190.937 43.2709 195.076 44.2599 198.658 46.238C202.298 48.158 205.117 50.8342 207.113 54.2668C209.168 57.6994 210.196 61.6556 210.196 66.1354C210.196 70.6153 209.168 74.5715 207.113 78.0041C205.117 81.4367 202.328 84.142 198.746 86.1201C195.164 88.04 191.054 89 186.416 89ZM186.416 74.5133C187.884 74.5133 189.176 74.1642 190.291 73.4661C191.407 72.7097 192.287 71.7207 192.933 70.4989C193.579 69.219 193.902 67.7645 193.902 66.1354C193.902 64.5064 193.579 63.081 192.933 61.8592C192.287 60.5793 191.377 59.5902 190.203 58.8921C189.087 58.1358 187.766 57.7576 186.24 57.7576C184.772 57.7576 183.451 58.1358 182.276 58.8921C181.161 59.5902 180.28 60.5793 179.634 61.8592C178.988 63.081 178.665 64.5064 178.665 66.1354C178.665 67.7645 178.988 69.219 179.634 70.4989C180.28 71.7207 181.19 72.7097 182.365 73.4661C183.539 74.1642 184.889 74.5133 186.416 74.5133Z" fill="#FF8D08"/>
<path d="M232.567 89C229.631 89 226.901 88.5927 224.376 87.7782C221.851 86.9637 219.679 85.8292 217.859 84.3747C216.097 82.8621 214.864 81.0585 214.16 78.964L226.754 74.0769C227.4 75.6478 228.31 76.6659 229.484 77.1314C230.659 77.5386 231.686 77.7423 232.567 77.7423C233.506 77.7423 234.27 77.5386 234.857 77.1314C235.444 76.7241 235.738 76.1423 235.738 75.386C235.738 74.5715 235.327 73.9024 234.505 73.3788C233.683 72.797 232.42 72.3025 230.717 71.8952L227.106 71.0225C223.173 70.0335 220.207 68.3172 218.211 65.8736C216.215 63.4301 215.217 60.5793 215.217 57.3212C215.217 52.8414 216.861 49.3797 220.149 46.9362C223.495 44.4927 228.017 43.2709 233.712 43.2709C237.176 43.2709 240.083 43.7072 242.431 44.5799C244.839 45.3944 246.806 46.558 248.332 48.0707C249.859 49.5834 251.033 51.3287 251.855 53.3069L239.613 57.9321C239.202 56.7685 238.497 55.9249 237.499 55.4013C236.56 54.8777 235.385 54.6159 233.976 54.6159C232.978 54.6159 232.185 54.8486 231.598 55.314C231.07 55.7795 230.806 56.3322 230.806 56.9722C230.806 57.6703 231.217 58.2812 232.039 58.8048C232.919 59.2703 234.24 59.7357 236.002 60.2011L239.613 61.0738C242.314 61.7138 244.662 62.7028 246.659 64.041C248.655 65.3209 250.211 66.9209 251.327 68.8408C252.442 70.7607 253 72.9715 253 75.4733C253 78.3241 252.149 80.7676 250.446 82.8039C248.743 84.782 246.365 86.3237 243.312 87.4292C240.259 88.4764 236.677 89 232.567 89Z" fill="#FF8D08"/>
</svg>
