<svg width="153" height="153" viewBox="0 0 153 153" fill="none" xmlns="http://www.w3.org/2000/svg">
<g opacity="0.12" clip-path="url(#clip0_2_81)">
<path d="M88.0188 137.14C88.4056 141.992 84.7801 146.26 79.9149 146.648C75.0498 147.035 70.794 143.396 70.4073 138.544C70.0181 133.661 73.646 129.424 78.5112 129.036C83.3764 128.648 87.6297 132.257 88.0188 137.14Z" fill="#FF8D08"/>
<path d="M78.1359 120.102C72.2536 120.571 66.5489 118.709 62.0562 114.875C57.5076 110.342 54.7781 105.003 54.3092 99.1206C53.8404 93.2383 55.6898 87.5346 59.5764 83.7643L86.6759 51.9708C89.7341 48.3684 91.2133 43.8019 90.8392 39.1085C90.4637 34.3974 88.2798 30.1229 84.6866 27.0684C77.2754 20.7514 66.1042 21.6285 59.7927 29.0526C56.7199 32.6384 55.2403 37.2005 55.6161 41.916L38.0046 43.3197C37.2547 33.9107 40.2209 24.7638 46.3563 17.5754C58.5921 3.20562 81.7744 1.37116 96.1499 13.6243C103.332 19.7291 107.699 28.2782 108.451 37.7047C109.201 47.1137 106.242 56.2467 100.115 63.43L72.9579 94.4971C71.3824 96.3552 71.6042 99.1378 73.4542 100.723C75.3129 102.307 78.0955 102.085 79.6799 100.227C80.7076 99.0015 80.7751 97.6802 80.7204 96.9933L98.3319 95.5896C98.8008 101.472 96.9527 107.193 93.1798 112.39C89.3555 116.886 84.0181 119.634 78.1359 120.102Z" fill="#FF8D08"/>
</g>
<defs>
<clipPath id="clip0_2_81">
<rect width="141.339" height="141.339" fill="white" transform="translate(0 11.2299) rotate(-4.55717)"/>
</clipPath>
</defs>
</svg>
